HIERARCHY
ROOT Hips
{
	OFFSET 0.00000 0.00000 0.00000
	CHANNELS 6 Xposition Yposition Zposition Yrotation Zrotation Xrotation 
	JOINT Lumbar
	{
		OFFSET 0 0 0
		CHANNELS 3 Zrotation Xrotation Yrotation
		JOINT Neck
		{
			OFFSET 0.00 0.2701 0.00
			CHANNELS 3 Zrotation Xrotation Yrotation
			End Site
			{
				OFFSET 0.00 0.1379 0.00
			}
		}
		JOINT RightShoulder
		{
			OFFSET 0.0119 0.2289 0.1181
			CHANNELS 3 Zrotation Xrotation Yrotation
			JOINT RightElbow
			{
				OFFSET 0.00 -0.1475 0.00
				CHANNELS 2 Zrotation Yrotation
				JOINT RightWrist
				{
					OFFSET 0.00 -0.1605 0.00
					CHANNELS 2 Zrotation Xrotation
					End Site
					{
						OFFSET 0.0040 -0.1068 0.0006
					}
				}
			}
		}
		JOINT LeftShoulder
		{
			OFFSET 0.0119 0.2289 -0.1181
			CHANNELS 3 Zrotation Xrotation Yrotation
			JOINT LeftElbow
			{
				OFFSET 0.00 -0.1475 0.00
				CHANNELS 2 Zrotation Yrotation
				JOINT LeftWrist
				{
					OFFSET 0.00 -0.1605 0.00
					CHANNELS 2 Zrotation Xrotation
					End Site
					{
						OFFSET 0.0040 -0.1068 -0.0006
					}
				}
			}
		}
	}
	JOINT RightHip
	{
		OFFSET 0.0316 -0.0424 0.0458
		CHANNELS 3 Zrotation Xrotation Yrotation
		JOINT RightKnee
		{
			OFFSET 0.00 -0.2438 0.00
			CHANNELS 1 Zrotation
			JOINT RightAnkle
			{
				OFFSET 0.00 -0.2449 0.00
				CHANNELS 3 Zrotation Xrotation Yrotation
				End Site
				{
					OFFSET 0.1237 -0.0542 0.0051
				}
			}
		}
	}
	JOINT LeftHip
	{
		OFFSET 0.0316 -0.0424 -0.0458
		CHANNELS 3 Zrotation Xrotation Yrotation
		JOINT LeftKnee
		{
			OFFSET 0.00 -0.2438 0.00
			CHANNELS 1 Zrotation
			JOINT LeftAnkle
			{
				OFFSET 0.00 -0.2449 0.00
				CHANNELS 3 Zrotation Xrotation Yrotation
				End Site
				{
					OFFSET 0.1237 -0.0542 -0.0051
				}
			}
		}
	}
}
MOTION
Frames: 17
Frame Time: 0.02
0.00019 -4e-05 -0.00072 25.70709 -20.64846 -7.92339 44.17079 2.85522 -4.91842 -7.70366 -2.03401 -0.16475 -25.49172 -11.42616 -4.40411 32.40194 90.09717 6.25353 -0.2255 -33.58706 11.76853 2.49588 35.64139 -98.37073 14.78898 0.08635 34.30277 0.35977 -1.42976 -20.98694 -8.76921 -5.24647 -3.52726 35.15008 8.78128 5.7401 -26.78354 -8.78887 4.84135 3.30992
8e-05 -3e-05 -0.00045 25.65643 -20.67592 -7.90427 44.18796 2.8221 -4.94331 -7.76892 -2.05445 -0.16561 -25.07978 -11.54229 -4.08165 32.56631 90.09948 6.28083 -0.23495 -32.93885 11.85665 2.06477 35.79619 -98.25489 14.69149 0.10558 34.34848 0.18861 -2.42963 -20.97984 -8.69081 -5.13725 -3.4636 35.21225 8.67714 5.28093 -26.78147 -8.83417 4.86974 3.33381
-3e-05 -2e-05 -0.00018 25.60587 -20.70333 -7.88517 44.20501 2.78906 -4.96824 -7.83427 -2.07485 -0.16646 -24.6682 -11.65829 -3.75955 32.7304 90.10165 6.30809 -0.24441 -32.29164 11.94472 1.6342 35.9509 -98.13893 14.59413 0.12476 34.39426 0.01811 -3.42583 -20.97277 -8.61269 -5.02842 -3.40018 35.27439 8.57347 4.82373 -26.77941 -8.87928 4.898 3.3576
-0.00014 -1e-05 9e-05 25.55536 -20.7307 -7.8661 44.22212 2.75603 -4.99308 -7.89938 -2.09523 -0.16731 -24.25739 -11.77409 -3.438 32.89429 90.10392 6.33531 -0.25384 -31.64527 12.0326 1.2043 36.10528 -98.02337 14.49692 0.14393 34.43987 -0.15249 -4.42251 -20.96569 -8.53453 -4.91955 -3.33672 35.3364 8.46968 4.36608 -26.77735 -8.92443 4.92629 3.38141
-0.00025 -0 0.00036 25.50477 -20.7581 -7.84701 44.23934 2.72294 -5.01782 -7.96431 -2.11565 -0.16816 -23.84655 -11.88995 -3.1163 33.05843 90.10638 6.36257 -0.26326 -30.99827 12.12047 0.77414 36.25963 -97.9081 14.39966 0.16314 34.48534 -0.32382 -5.42312 -20.95855 -8.45608 -4.81025 -3.27301 35.39841 8.36534 3.90622 -26.77528 -8.96977 4.95471 3.40533
-0.00036 1e-05 0.00064 25.45426 -20.78553 -7.8279 44.25602 2.68999 -5.04315 -8.03055 -2.136 -0.16902 -23.43345 -12.00627 -2.79338 33.22242 90.10794 6.38983 -0.27279 -30.35067 12.20895 0.34273 36.41511 -97.79073 14.30208 0.18228 34.53176 -0.49258 -6.41004 -20.95165 -8.37866 -4.70242 -3.2102 35.46082 8.26307 3.45463 -26.77325 -9.0144 4.98266 3.42884
-0.00047 2e-05 0.0009 25.40366 -20.81287 -7.80887 44.27384 2.6568 -5.06728 -8.09402 -2.15646 -0.16986 -23.02538 -12.12148 -2.47335 33.38643 90.1113 6.41704 -0.28207 -29.70501 12.29607 -0.08561 36.56807 -97.67767 14.20525 0.20152 34.5762 -0.66628 -7.42321 -20.94427 -8.29926 -4.59177 -3.14567 35.52232 8.15679 2.98702 -26.77114 -9.0604 5.01152 3.45315
-0.00058 3e-05 0.00118 25.35311 -20.84029 -7.78974 44.2905 2.62384 -5.0925 -8.16017 -2.17684 -0.17073 -22.61261 -12.23778 -2.15049 33.55058 90.11301 6.44432 -0.29161 -29.05751 12.38453 -0.51692 36.72349 -97.5607 14.10773 0.22069 34.6225 -0.83549 -8.41255 -20.93735 -8.22165 -4.48368 -3.08269 35.5847 8.05415 2.53395 -26.7691 -9.10517 5.03955 3.47673
-0.0007 3e-05 0.00146 25.30272 -20.86785 -7.77057 44.30614 2.59108 -5.11913 -8.22918 -2.19702 -0.17159 -22.19401 -12.35523 -1.82457 33.7144 90.11267 6.47161 -0.30139 -28.40751 12.47435 -0.95166 36.88152 -97.43858 14.00928 0.23969 34.67099 -0.99901 -9.37157 -20.93093 -8.14634 -4.37886 -3.02169 35.64805 7.95617 2.09948 -26.76715 -9.14834 5.06653 3.49937
-0.00078 5e-05 0.0017 25.25171 -20.89471 -7.75188 44.32884 2.55693 -5.13791 -8.28049 -2.21805 -0.17235 -21.80865 -12.46554 -1.51743 33.87861 90.12402 6.49862 -0.30956 -27.77112 12.55551 -1.36609 37.02332 -97.34497 13.91591 0.25943 34.70665 -1.19468 -10.50149 -20.92146 -8.05812 -4.25564 -2.94957 35.70553 7.832 1.56046 -26.76472 -9.2004 5.09944 3.52729
-0.00094 5e-05 0.00202 25.20184 -20.92299 -7.732 44.33589 2.52587 -5.17305 -8.36989 -2.23751 -0.17343 -21.35351 -12.59121 -1.17005 34.04291 90.11075 6.52638 -0.32125 -27.10665 12.65543 -1.82363 37.20009 -97.192 13.81204 0.27777 34.76951 -1.32289 -11.27309 -20.91853 -7.99696 -4.17099 -2.90075 35.77554 7.76271 1.24045 -26.76328 -9.23389 5.11991 3.54416
-0.00131 -0 0.00255 25.15644 -20.95583 -7.71016 44.30564 2.502 -5.25507 -8.55894 -2.25078 -0.17444 -20.70201 -12.75713 -0.71608 34.20017 90.02885 6.55471 -0.34178 -26.35902 12.80346 -2.39842 37.46809 -96.86747 13.67724 0.29094 34.90674 -1.261 -11.03339 -20.93287 -8.01227 -4.19522 -2.91788 35.87946 7.84852 1.54026 -26.76473 -9.21451 5.10534 3.52964
-0.00175 -7e-05 0.00317 25.112 -20.99002 -7.68685 44.25844 2.4815 -5.35312 -8.78704 -2.26281 -0.17591 -19.98158 -12.9388 -0.22115 34.35888 89.9224 6.58404 -0.36602 -25.58455 12.97094 -3.01644 37.77209 -96.48481 13.53237 0.30294 35.07141 -1.13228 -10.43905 -20.95392 -8.05436 -4.25762 -2.95804 35.99617 7.98862 2.05642 -26.76715 -9.17685 5.07846 3.50421
-0.00216 -0.00013 0.00375 25.06616 -21.02309 -7.66335 44.21558 2.46029 -5.44258 -9.0006 -2.27666 -0.17778 -19.29551 -13.11455 0.25777 34.52168 89.82791 6.61388 -0.38908 -24.82605 13.13178 -3.61567 38.06271 -96.13452 13.39332 0.31638 35.22358 -1.03739 -10.02536 -20.97233 -8.08273 -4.30055 -2.98635 36.10725 8.10096 2.46143 -26.76903 -9.14876 5.05778 3.48445
-0.00255 -0.00019 0.0043 25.02412 -21.05814 -7.64351 44.18773 2.43554 -5.5377 -9.20116 -2.28527 -0.17714 -18.59542 -13.28524 0.72647 34.66439 89.73008 6.6397 -0.40995 -24.05061 13.28347 -4.2124 38.34084 -95.75943 13.24856 0.32606 35.37559 -0.92781 -9.5289 -20.98898 -8.11766 -4.35249 -3.02052 36.21719 8.22644 2.92141 -26.77135 -9.11522 5.03447 3.46166
-0.003 -0.00026 0.00495 24.97474 -21.08962 -7.61566 44.12353 2.41906 -5.62465 -9.4375 -2.30443 -0.18175 -17.90955 -13.47004 1.2253 34.84936 89.63325 6.67407 -0.43633 -23.30527 13.45867 -4.82332 38.6535 -95.42168 13.11389 0.34323 35.53485 -0.83291 -9.12055 -21.01095 -8.14533 -4.39475 -3.04797 36.33302 8.33739 3.31772 -26.77297 -9.08878 5.01375 3.4426
-0.00356 -0.00036 0.00587 24.90214 -21.10887 -7.56644 43.972 2.42373 -5.68673 -9.76757 -2.35345 -0.20168 -17.26862 -13.69122 1.80447 35.14937 89.54688 6.73243 -0.47633 -22.63972 13.69537 -5.47359 39.05212 -95.20656 13.00463 0.38191 35.70403 -0.79596 -9.04549 -21.04548 -8.14599 -4.40063 -3.05092 36.45796 8.39461 3.48676 -26.7724 -9.08612 5.00322 3.43669
